<svg xmlns="http://www.w3.org/2000/svg" viewBox="0 0 500 500" width="100%" height="100%">
  <g id="jira-symbol" transform="translate(250, 360)">
    <path d="M-40,10 L0,-30 L40,10" fill="none" stroke="#0891b2" stroke-width="28" stroke-linecap="round" stroke-linejoin="round"/>
    <path d="M-40,40 L0,0 L40,40" fill="none" stroke="#06b6d4" stroke-width="28" stroke-linecap="round" stroke-linejoin="round"/>
  </g>

  <g id="cat-body" fill="#334155">
    <path d="M140,220 L110,100 L210,160 Z" stroke="#334155" stroke-width="15" stroke-linejoin="round"/>
    <path d="M360,220 L390,100 L290,160 Z" stroke="#334155" stroke-width="15" stroke-linejoin="round"/>
    
    <rect x="120" y="140" width="260" height="180" rx="90" />
  </g>

  <g id="cat-face" fill="#ffffff">
    <circle cx="200" cy="230" r="14" />
    <circle cx="300" cy="230" r="14" />
    
    <path d="M240,260 Q250,275 260,260" fill="none" stroke="#ffffff" stroke-width="8" stroke-linecap="round"/>
  </g>

  <g id="cat-paws">
    <path d="M140,280 C100,340 160,400 210,360" fill="none" stroke="#334155" stroke-width="28" stroke-linecap="round"/>
    <path d="M360,280 C400,340 340,400 290,360" fill="none" stroke="#334155" stroke-width="28" stroke-linecap="round"/>
  </g>
</svg>
